<?xml version="1.0" encoding="UTF-8"?>
<svg width="32px" height="32px" viewBox="0 0 32 32" version="1.1" xmlns="http://www.w3.org/2000/svg" xmlns:xlink="http://www.w3.org/1999/xlink">
    <!-- Generator: Sketch 64 (93537) - https://sketch.com -->
    <title>icons/white/settings-32</title>
    <desc>Created with Sketch.</desc>
    <g id="icons/white/settings-32" stroke="none" stroke-width="1" fill="none" fill-rule="evenodd">
        <path d="M3.54456388,19.5105576 C3.8283653,20.4837654 4.22221217,21.4222158 4.72031262,22.3027371 L3.30130552,24.0927444 C2.83795627,24.6778277 2.89008306,25.5120058 3.41135097,26.03916 L5.85551829,28.4837654 C6.38257807,29.0109196 7.21660673,29.0572049 7.80158516,28.5937726 L9.57968793,27.186097 C10.4948027,27.7133092 11.4678361,28.1245474 12.4814126,28.4141926 L12.7478385,30.7023896 C12.8347164,31.4438812 13.4602379,32 14.2015967,32 L17.6593406,32 C18.4006994,32 19.0262209,31.4438233 19.1130988,30.7023896 L19.3679409,28.4952933 C20.4568117,28.211441 21.4993475,27.788559 22.4781728,27.2382332 L24.1983569,28.5995655 C24.7833354,29.0629978 25.617364,29.0108617 26.1444238,28.4895004 L28.5885911,26.044895 C29.1156509,25.5177408 29.1619858,24.6835626 28.6986366,24.0984794 L27.3607156,22.4011586 C27.9167347,21.4394786 28.3511246,20.4141926 28.6407179,19.3425054 L30.7026221,19.1049964 C31.4440388,19.0181028 32,18.3924692 32,17.6509776 L32,14.192614 C32,13.4511224 31.4439809,12.8254888 30.7026221,12.7385952 L28.6696772,12.5010862 C28.3916098,11.4409848 27.9746533,10.4272266 27.4418596,9.47719044 L28.6929026,7.89572773 C29.1562519,7.31064446 29.1041251,6.47646633 28.5828572,5.94931209 L26.1444817,3.51049964 C25.6174219,2.9833454 24.7833933,2.93700217 24.1984148,3.40043447 L22.6635704,4.61694424 C21.6673695,4.03186097 20.6016083,3.58580739 19.4838362,3.28457639 L19.2521615,1.29761043 C19.1652836,0.556118755 18.5397621,0 17.7984033,0 L14.3406594,0 C13.5993006,0 12.9737791,0.556118755 12.8869012,1.29761043 L12.6552265,3.28457639 C11.5084371,3.59160029 10.4137745,4.05503259 9.39440614,4.66328747 L7.80164308,3.40043447 C7.21666465,2.93700217 6.38263599,2.98913831 5.85557621,3.51049964 L3.41140889,5.955105 C2.88434911,6.48225923 2.83801419,7.31643736 3.30136344,7.90152064 L4.63349255,9.58725561 C4.10064091,10.5488776 3.69521031,11.5742216 3.42878449,12.6401159 L1.29737791,12.8834178 C0.556019106,12.9703114 0,13.595945 0,14.3374366 L0,17.7958001 C0,18.5372918 0.556019106,19.1629254 1.29737791,19.249819 L3.54456388,19.5105576 Z M16.0723694,10.1550181 C19.2231443,10.1550181 21.7889408,12.7212744 21.7889408,15.872614 C21.7889408,19.0239537 19.2231443,21.59021 16.0723694,21.59021 C12.9216523,21.59021 10.3557979,19.0239537 10.3557979,15.872614 C10.3557979,12.7212744 12.9215944,10.1550181 16.0723694,10.1550181 Z" id="Shape" fill="#FFFFFF" fill-rule="nonzero"></path>
    </g>
</svg>